{"title":"The Internship 2013 CAM AAC x264-SSDD ","uid":8639733,"size":525011747,"categoryP":"video","categoryS":"movies","magnet":"?xt=urn:btih:bd4fdcd1b0f489d5da65046dff818deede03e146&amp;dn=The+Internship+2013+CAM+AAC+x264-SSDD+&amp;tr=udp%3A%2F%2Ftracker.openbittorrent.com%3A80&amp;tr=udp%3A%2F%2Fopen.demonii.com%3A1337&amp;tr=udp%3A%2F%2Ftracker.coppersurfer.tk%3A6969&amp;tr=udp%3A%2F%2Fexodus.desync.com%3A6969","seeders":6,"leechers":0,"uploader":"srkfan","files":2,"time":1372857798,"description":" &lt;a href=&quot;http://imageshack.us/a/img853/444/fu02.png&quot; rel=&quot;nofollow&quot; target=&quot;_NEW&quot;&gt;http://imageshack.us/a/img853/444/fu02.png&lt;/a&gt;\n &lt;a href=&quot;\nhttp://img27.imageshack.us/img27/5213/ve4i.jpg&quot; rel=&quot;nofollow&quot; target=&quot;_NEW&quot;&gt;\nhttp://img27.imageshack.us/img27/5213/ve4i.jpg&lt;/a&gt;\n\nIMDB Link - http://www.imdb.com/title/tt2234155\n\nSource - The Internship ENG CAM XViD-HaNdSoLoW (Thumbs Up + Respect)\n\nNOTES - Enjoy.  Cropped, Resized to what i thought looked right, ran some filters, not the greatest cam i seen, but hey its free \n\nGeneral\nComplete name                            : The Internship 2013 CAM AAC x264-SSDD.mp4\nFormat                                   : MPEG-4\nFormat profile                           : Base Media\nCodec ID                                 : isom\nFile size                                : 500 MiB\nDuration                                 : 1h 53mn\nOverall bit rate mode                    : Variable\nOverall bit rate                         : 618 Kbps\n\nVideo\nID                                       : 1\nFormat                                   : AVC\nFormat/Info                              : Advanced Video Codec\nFormat profile                           : &lt;a class=&quot;__cf_email__&quot; href=&quot;/cdn-cgi/l/email-protection&quot; data-cfemail=&quot;5911303e3119156d7768&quot;&gt;[email&amp;#160;protected]&lt;/a&gt;&lt;script cf-hash='f9e31' type=&quot;text/javascript&quot;&gt;\n/* &lt;![CDATA[ */!function(){try{var t=&quot;currentScript&quot;in document?document.currentScript:function(){for(var t=document.getElementsByTagName(&quot;script&quot;),e=t.length;e--;)if(t[e].getAttribute(&quot;cf-hash&quot;))return t[e]}();if(t&amp;&amp;t.previousSibling){var e,r,n,i,c=t.previousSibling,a=c.getAttribute(&quot;data-cfemail&quot;);if(a){for(e=&quot;&quot;,r=parseInt(a.substr(0,2),16),n=2;a.length-n;n+=2)i=parseInt(a.substr(n,2),16)^r,e+=String.fromCharCode(i);e=document.createTextNode(e),c.parentNode.replaceChild(e,c)}}}catch(u){}}();/* ]]&gt; */&lt;/script&gt;\nFormat settings, CABAC                   : Yes\nFormat settings, ReFrames                : 4 frames\nCodec ID                                 : avc1\nCodec ID/Info                            : Advanced Video Coding\nDuration                                 : 1h 53mn\nBit rate                                 : 566 Kbps\nMaximum bit rate                         : 1 527 Kbps\nWidth                                    : 640 pixels\nHeight                                   : 256 pixels\nDisplay aspect ratio                     : 2.500\nFrame rate mode                          : Constant\nFrame rate                               : 25.000 fps\nColor space                              : YUV\nChroma subsampling                       : 4:2:0\nBit depth                                : 8 bits\nScan type                                : Progressive\nBits/(Pixel*Frame)                       : 0.138\nStream size                              : 459 MiB (92%)\nWriting library                          : x264 core 133 r2334 a3ac64b\n\nAudio\nID                                       : 2\nFormat                                   : AAC\nFormat/Info                              : Advanced Audio Codec\nFormat profile                           : LC\nCodec ID                                 : 40\nDuration                                 : 1h 53mn\nBit rate mode                            : Variable\nBit rate                                 : 48.0 Kbps\nMaximum bit rate                         : 53.4 Kbps\nChannel(s)                               : 2 channels\nChannel positions                        : Front: L R\nSampling rate                            : 44.1 KHz\nCompression mode                         : Lossy\nStream size                              : 38.9 MiB (8%)\n &lt;a href=&quot;\nhttp://img14.imageshack.us/img14/940/xo9q.png&quot; rel=&quot;nofollow&quot; target=&quot;_NEW&quot;&gt;\nhttp://img14.imageshack.us/img14/940/xo9q.png&lt;/a&gt; &lt;a href=&quot;\nhttp://img6.imageshack.us/img6/5780/voj.png&quot; rel=&quot;nofollow&quot; target=&quot;_NEW&quot;&gt;\nhttp://img6.imageshack.us/img6/5780/voj.png&lt;/a&gt; &lt;a href=&quot;\nhttp://img823.imageshack.us/img823/403/s8h.png&quot; rel=&quot;nofollow&quot; target=&quot;_NEW&quot;&gt;\nhttp://img823.imageshack.us/img823/403/s8h.png&lt;/a&gt; &lt;a href=&quot;\nhttp://img838.imageshack.us/img838/8997/0kdk.png&quot; rel=&quot;nofollow&quot; target=&quot;_NEW&quot;&gt;\nhttp://img838.imageshack.us/img838/8997/0kdk.png&lt;/a&gt;\n","torrent":{"xt":"urn:btih:bd4fdcd1b0f489d5da65046dff818deede03e146","amp;dn":"The+Internship+2013+CAM+AAC+x264-SSDD+","amp;tr":["udp%3A%2F%2Ftracker.openbittorrent.com%3A80","udp%3A%2F%2Fopen.demonii.com%3A1337","udp%3A%2F%2Ftracker.coppersurfer.tk%3A6969","udp%3A%2F%2Fexodus.desync.com%3A6969"],"infoHash":"bd4fdcd1b0f489d5da65046dff818deede03e146","infoHashBuffer":{"type":"Buffer","data":[189,79,220,209,176,244,137,213,218,101,4,109,255,129,141,238,222,3,225,70]},"announce":[],"urlList":[]}}